# xmcd
#
# Track frame offsets: 
#        182
#        15292
#        26175
#        41182
#        57980
#        69112
#        82420
#        97240
#        110765
#        125132
#
# Disc length: 1834 seconds
#
# Revision: 0
# Processed by: cddbd v1.4PL0 Copyright (c) Steve Scherf et al.
# Submitted via: ExactAudioCopy v0.90b4
#
DISCID=9107280a
DTITLE=Ronnie McDowell - When A Man Loves A Woman
DYEAR=1992
DGENRE=Country
TTITLE0=When A Man Loves A Woman
TTITLE1=Linda Don't Leave
TTITLE2=A Little Bit More
TTITLE3=Talk It Over
TTITLE4=Why Get Up
TTITLE5=When You're In Love With A Beautiful Woman
TTITLE6=You Sweet Little Devil You
TTITLE7=Hangin' Up My Heart
TTITLE8=Hold Me Tight
TTITLE9=Be Still My Beating Heart
EXTD=
EXTT0=
EXTT1=
EXTT2=
EXTT3=
EXTT4=
EXTT5=
EXTT6=
EXTT7=
EXTT8=
EXTT9=
PLAYORDER=
